<svg id="Layer_3" data-name="Layer 3" xmlns="http://www.w3.org/2000/svg" viewBox="0 0 61.4 49.5"><defs><style>.cls-1{fill:#fac54b;}.cls-2{fill:#fff;stroke:#666;stroke-miterlimit:10;}</style></defs><title>day_partlyCloudy</title><path class="cls-1" d="M24.5,17.5a2,2,0,0,0,2-2v-6a2,2,0,0,0-4,0v6A2,2,0,0,0,24.5,17.5Z" transform="translate(-1.5 -7.5)"/><path class="cls-1" d="M11.5,30.5a2,2,0,0,0-2-2h-6a2,2,0,0,0,0,4h6A2,2,0,0,0,11.5,30.5Z" transform="translate(-1.5 -7.5)"/><path class="cls-1" d="M12.8,21.6a1.93,1.93,0,0,0,2.8,0,1.93,1.93,0,0,0,0-2.8l-4.3-4.3a2,2,0,1,0-2.8,2.8Z" transform="translate(-1.5 -7.5)"/><path class="cls-1" d="M34.8,22.2a2,2,0,0,0,1.4-.6l4.3-4.3a2,2,0,0,0-2.8-2.8l-4.3,4.3a1.93,1.93,0,0,0,0,2.8A2,2,0,0,0,34.8,22.2Z" transform="translate(-1.5 -7.5)"/><path class="cls-1" d="M12.8,39.4L8.5,43.7a1.93,1.93,0,0,0,0,2.8,1.93,1.93,0,0,0,2.8,0l4.3-4.3A2,2,0,1,0,12.8,39.4Z" transform="translate(-1.5 -7.5)"/><path class="cls-2" d="M52.5,36.5a13,13,0,0,0-25,4.1c-0.3,0-.7-0.1-1.1-0.1a8,8,0,0,0,0,16h26a10,10,0,0,0,10-10A9.88,9.88,0,0,0,52.5,36.5Z" transform="translate(-1.5 -7.5)"/><path class="cls-1" d="M24.2,36.7A17.21,17.21,0,0,1,33.4,26a10,10,0,0,0-19,4.4,10.09,10.09,0,0,0,4.7,8.5A16.44,16.44,0,0,1,24.2,36.7Z" transform="translate(-1.5 -7.5)"/></svg>